# xmcd
#
# Track frame offsets: 
#        150
#        16880
#        41927
#        58032
#
# Disc length: 1142 seconds
#
# Revision: 7
# Processed by: cddbd v1.5.2PL0 Copyright (c) Steve Scherf et al.
# Submitted via: ExactAudioCopy v0.99pb5
#
DISCID=2f047404
DTITLE=Beat System - Fresh
DYEAR=1996
DGENRE=Eurodance
TTITLE0=Fresh (Radio Mix)
TTITLE1=Fresh (Extended DJ Mix)
TTITLE2=Fresh (Crazy Z. Version)
TTITLE3=Fresh (Call My Name)
EXTD=
EXTT0=
EXTT1=
EXTT2=
EXTT3=
PLAYORDER=
